<svg xmlns="http://www.w3.org/2000/svg" width="1920" height="1080" viewBox="0 0 1920 1080">
<defs><radialGradient id="g" cx="50%" cy="45%" r="75%"><stop offset="0" stop-color="#4b0000"/><stop offset=".52" stop-color="#150101"/><stop offset="1" stop-color="#050505"/></radialGradient><filter id="blur"><feGaussianBlur stdDeviation="4"/></filter></defs>
<rect width="1920" height="1080" fill="url(#g)"/><g opacity=".33" filter="url(#blur)"><circle cx="930" cy="520" r="330" fill="none" stroke="#b70000" stroke-width="45"/><circle cx="930" cy="520" r="225" fill="none" stroke="#ff1f1f" stroke-width="14"/></g>
<g transform="translate(960 520)"><path d="M-150-185 H150 C175-185 195-165 195-140 V25 C195 135 115 215 0 258 C-115 215-195 135-195 25 V-140 C-195-165-175-185-150-185Z" fill="#111" stroke="#d50000" stroke-width="14"/><text x="0" y="-108" text-anchor="middle" font-family="Arial Black,Arial" font-size="48" fill="#f5f5f5">KMBD</text><text x="0" y="-55" text-anchor="middle" font-family="Arial" font-size="20" fill="#b9b9b9">LANDESPOLIZEI KÖLN</text><path d="M-76 95 L-22 12 L-51 12 L-12-72 H68 L28-10 H62 Z" fill="#e00000"/><text x="0" y="178" text-anchor="middle" font-family="Arial" font-size="22" fill="#eee">EINSATZ · AUSBILDUNG · VERWALTUNG</text></g>
<g opacity=".16" font-family="Arial Black" font-size="140" fill="#fff"><text x="80" y="160">KMBD</text><text x="1370" y="980">KÖLN</text></g>
</svg>
